PathFileType	4	(x/y/z)	S02_PSF_T05
DataRate	CameraRate	NumFrames	NumMarkers	Units	OrigDataRate	OrigDataStartFrame	OrigNumFrames
240	240	4	51	mm	240	308	410
Frame#	Time	Sternum			R.Acromium			L.Acromium			Top.Head			R.ASIS			L.ASIS			R.PSIS			L.PSIS			R.Great.Tro			L.Great.Tro			R.Iliac.Crest			L.Iliac.Crest			V.Sacral			R.Thigh.Upper.Post			R.Thigh.Lower.Ant			R.Thigh.Lower.Post			R.Thigh.Upper.Ant			R.Knee.Lat			R.Knee.Med			R.Shank.Upper.Post			R.Shank.Lower.Ant			R.Shank.Lower.Post			R.Shank.Upper.Ant			R.Ankle.Lat			R.Ankle.Med			R.Heel.Upper			R.Heel.Med			R.Heel.Lat			R.Toe.Lat			R.Toe.Med			R.Toe.Tip			L.Thigh.Upper.Post			L.Thigh.Lower.Ant			L.Thigh.Lower.Post			L.Thigh.Upper.Ant			L.Knee.Lat			L.Knee.Med			L.Shank.Upper.Post			L.Shank.Lower.Ant			L.Shank.Lower.Post			L.Shank.Upper.Ant			L.Ankle.Lat			L.Ankle.Med			L.Heel.Upper			L.Heel.Med			L.Heel.Lat			L.Toe.Lat			L.Toe.Med			L.Toe.Tip			Cervical.Spine			Back			
		X1	Y1	Z1	X2	Y2	Z2	X3	Y3	Z3	X4	Y4	Z4	X5	Y5	Z5	X6	Y6	Z6	X7	Y7	Z7	X8	Y8	Z8	X9	Y9	Z9	X10	Y10	Z10	X11	Y11	Z11	X12	Y12	Z12	X13	Y13	Z13	X14	Y14	Z14	X15	Y15	Z15	X16	Y16	Z16	X17	Y17	Z17	X18	Y18	Z18	X19	Y19	Z19	X20	Y20	Z20	X21	Y21	Z21	X22	Y22	Z22	X23	Y23	Z23	X24	Y24	Z24	X25	Y25	Z25	X26	Y26	Z26	X27	Y27	Z27	X28	Y28	Z28	X29	Y29	Z29	X30	Y30	Z30	X31	Y31	Z31	X32	Y32	Z32	X33	Y33	Z33	X34	Y34	Z34	X35	Y35	Z35	X36	Y36	Z36	X37	Y37	Z37	X38	Y38	Z38	X39	Y39	Z39	X40	Y40	Z40	X41	Y41	Z41	X42	Y42	Z42	X43	Y43	Z43	X44	Y44	Z44	X45	Y45	Z45	X46	Y46	Z46	X47	Y47	Z47	X48	Y48	Z48	X49	Y49	Z49	X50	Y50	Z50	X51	Y51	Z51	

308	1.2792	186.32	1090.4	356.18	83.649	1332.1	487.38	81.411	1325.5	195.89	115.62	1617.1	331.01	140.66	920.98	466.57	167.29	919.88	257.35	-62.56	957.95	393.09	-62.752	968.09	320	57.223	791.35	551.37	61.213	824.94	158.08	33.043	959.49	518.3	50.535	970.38	181.31	-86.784	915.11	345.36	83.175	592.98	551.74	150.8	517.41	538.31	79.064	503.05	539.17	150.63	606.88	546.63	97.143	428.25	535.08	123.24	407.38	391.53	-91.464	354.27	493.05	-111.41	246.52	476.16	-145.55	305.61	478.1	-59.429	289.23	499.03	-205.14	234.79	460.49	-170.45	232.98	380.51	-227.86	286.39	400.59	-245.85	267	364.92	-264.18	272.54	427.56	-228.89	115.59	469.38	-197.21	90.482	366.62	-167.61	51.701	427.79	76.022	591.49	190.13	168.83	533.28	203.41	95.68	506.63	218.19	140.56	620.46	176.36	167.86	451.25	219.59	166.15	458.55	357.61	85.268	280.42	233.29	153.72	193.78	253.99	82.57	209.06	254.02	149.7	267.67	233.28	105.34	97.779	274.49	119.72	96.675	355.18	47.137	66.004	311.23	56.55	40.675	345.4	52.272	37.682	283.64	218.33	34.885	250.21	242.37	44.956	359.74	301.2	60.404	311.38	4.7301	1390.8	342.91	-73.058	1139.4	358.29
309	1.2833	191.46	1091	356.25	88.616	1332.9	487.36	86.853	1326.2	195.68	120.97	1618	330.94	145.93	921.56	466.38	172.14	920.2	256.96	-57.424	958.92	393.01	-57.782	969.08	319.94	62.863	792.41	551.32	65.148	825.61	157.91	38.274	960.2	518.15	55.348	971.09	181.1	-81.86	916.13	345.35	91.489	594.41	552.03	160.08	519.65	538.8	88.507	504.45	539.47	158.77	609.14	547.06	107.72	429.98	535.44	133.68	409.42	391.75	-80.28	355.05	492.83	-99.544	247.17	476.11	-134.07	306.05	477.89	-47.877	290.21	498.98	-193.17	235.05	460.15	-158.51	233.33	380.29	-216.85	285.8	399.89	-234.47	265.84	364.38	-252.86	271.54	426.97	-214.84	115.77	469.95	-182.81	90.401	367.35	-152.54	52.669	428.82	78.516	592.2	189.98	170.85	533.23	203.27	97.476	507.18	217.98	143.31	620.65	176.24	169.08	451.18	219.43	167.62	458.46	357.51	85.816	280.62	233.25	154.05	193.76	253.89	82.944	209.28	254	150.23	267.65	233.19	105.4	97.87	274.48	119.78	96.76	355.16	47.159	66.093	311.24	56.58	40.759	345.39	52.293	37.775	283.63	218.34	34.871	250.2	242.39	44.927	359.72	301.23	60.332	311.36	10.047	1391.6	342.6	-67.868	1140.3	357.64
310	1.2875	196.58	1091.7	356.31	93.592	1333.7	487.35	92.274	1326.9	195.5	126.3	1618.9	330.87	151.22	922.15	466.16	176.96	920.54	256.56	-52.276	959.93	392.97	-52.819	970.1	319.9	68.468	793.49	551.26	69.038	826.28	157.75	43.552	960.95	518.01	60.098	971.79	180.9	-76.945	917.2	345.39	99.802	595.88	552.27	169.34	521.95	539.2	97.942	505.89	539.72	166.9	611.44	547.42	118.25	431.76	535.72	144.07	411.53	391.91	-69.111	355.69	492.59	-87.569	247.66	476.07	-122.55	306.28	477.7	-36.267	291.09	498.92	-181.08	235.02	459.86	-146.51	233.49	380.1	-205.86	284.89	399.28	-223.08	264.35	363.95	-241.51	270.13	426.49	-200.44	115.66	470.52	-168.09	90.147	368.07	-137.04	53.537	429.78	80.985	592.93	189.88	172.83	533.19	203.16	99.245	507.74	217.82	146.02	620.83	176.15	170.28	451.14	219.31	169.09	458.39	357.45	86.352	280.84	233.22	154.37	193.77	253.8	83.312	209.52	253.98	150.75	267.66	233.11	105.46	97.967	274.48	119.84	96.85	355.14	47.184	66.191	311.24	56.609	40.848	345.38	52.316	37.875	283.63	218.35	34.857	250.19	242.42	44.9	359.71	301.27	60.26	311.35	15.354	1392.5	342.31	-62.705	1141.2	357
311	1.2917	201.66	1092.3	356.37	98.579	1334.5	487.32	97.675	1327.6	195.33	131.61	1619.8	330.83	156.52	922.75	465.89	181.76	920.91	256.14	-47.118	960.98	392.97	-47.863	971.12	319.9	74.043	794.56	551.18	72.889	826.94	157.61	48.876	961.74	517.87	64.785	972.49	180.71	-72.038	918.29	345.49	108.11	597.39	552.47	178.58	524.29	539.51	107.37	507.39	539.92	175.02	613.77	547.71	128.73	433.59	535.93	154.42	413.71	392.03	-57.957	356.19	492.36	-75.491	248	476.05	-110.99	306.32	477.52	-24.601	291.87	498.85	-168.88	234.7	459.62	-134.46	233.45	379.94	-194.88	283.66	398.79	-211.68	262.51	363.62	-230.1	268.33	426.14	-185.72	115.26	471.11	-153.09	89.725	368.76	-121.17	54.293	430.68	83.432	593.65	189.81	174.77	533.15	203.08	100.99	508.31	217.7	148.71	621.01	176.09	171.46	451.11	219.21	170.55	458.34	357.41	86.877	281.07	233.2	154.68	193.79	253.72	83.675	209.77	253.97	151.26	267.69	233.05	105.52	98.07	274.48	119.9	96.944	355.13	47.211	66.298	311.25	56.636	40.943	345.37	52.342	37.983	283.63	218.36	34.844	250.18	242.45	44.875	359.7	301.31	60.187	311.33	20.648	1393.4	342.04	-57.568	1142.2	356.39
